HIERARCHY
ROOT hips
{
	OFFSET -0.003675 0.299928 -0.021708
	CHANNELS 6 Xposition Yposition Zposition Xrotation Yrotation Zrotation
	JOINT LowerBack
	{
		OFFSET 0.000919 0.177588 0.009275
		CHANNELS 3 Xrotation Yrotation Zrotation
		JOINT spine
		{
			OFFSET 0.000919 0.177588 0.009275
			CHANNELS 3 Xrotation Yrotation Zrotation
			JOINT chest
			{
				OFFSET 0.000456 0.100015 0.004638
				CHANNELS 3 Xrotation Yrotation Zrotation
				JOINT neck
				{
					OFFSET 0.000456 0.100015 0.004638
					CHANNELS 3 Xrotation Yrotation Zrotation
					JOINT head
					{
						OFFSET 0.000924 0.155147 0.009274
						CHANNELS 6 Xposition Yposition Zposition Xrotation Yrotation Zrotation
						End Site
						{
							OFFSET 0.000000 0.153400 0.000000
						}
					}
				}
				JOINT shoulder.L
				{
					OFFSET 0.019937 0.078966 0.057518
					CHANNELS 6 Xposition Yposition Zposition Yrotation Xrotation Zrotation
					JOINT upper_arm.L
					{
						OFFSET 0.177024 -0.020465 -0.095062
						CHANNELS 6 Xposition Yposition Zposition Xrotation Yrotation Zrotation
						JOINT forearm.L
						{
							OFFSET 0.247100 -0.135500 -0.061800
							CHANNELS 3 Xrotation Yrotation Zrotation
							JOINT hand.L
							{
								OFFSET 0.217000 -0.143000 0.039300
								CHANNELS 3 Xrotation Yrotation Zrotation
								JOINT palm.01.L
								{
									OFFSET 0.021770 -0.038291 0.012954
									CHANNELS 6 Xposition Yposition Zposition Yrotation Xrotation Zrotation
									JOINT f_index.01.L
									{
										OFFSET 0.053215 -0.044137 0.008236
										CHANNELS 3 Xrotation Yrotation Zrotation
										JOINT f_index.02.L
										{
											OFFSET 0.036108 -0.024723 -0.010656
											CHANNELS 3 Xrotation Yrotation Zrotation
											JOINT f_index.03.L
											{
												OFFSET 0.021342 -0.014948 -0.010846
												CHANNELS 3 Xrotation Yrotation Zrotation
												End Site
												{
													OFFSET 0.015600 -0.009860 -0.013421
												}
											}
										}
									}
									JOINT thumb.01.L
									{
										OFFSET -0.009090 -0.002348 -0.024223
										CHANNELS 6 Xposition Yposition Zposition Xrotation Yrotation Zrotation
										JOINT thumb.02.L
										{
											OFFSET 0.019713 -0.035076 -0.011120
											CHANNELS 3 Xrotation Yrotation Zrotation
											JOINT thumb.03.L
											{
												OFFSET 0.024877 -0.021748 -0.005176
												CHANNELS 3 Xrotation Yrotation Zrotation
												End Site
												{
													OFFSET 0.016125 -0.013029 -0.001569
												}
											}
										}
									}
								}
								JOINT palm.02.L
								{
									OFFSET 0.032823 -0.025104 0.012281
									CHANNELS 6 Xposition Yposition Zposition Yrotation Xrotation Zrotation
									JOINT f_middle.01.L
									{
										OFFSET 0.055723 -0.038469 0.008037
										CHANNELS 3 Xrotation Yrotation Zrotation
										JOINT f_middle.02.L
										{
											OFFSET 0.038167 -0.027473 -0.015582
											CHANNELS 3 Xrotation Yrotation Zrotation
											JOINT f_middle.03.L
											{
												OFFSET 0.021707 -0.016587 -0.017037
												CHANNELS 3 Xrotation Yrotation Zrotation
												End Site
												{
													OFFSET 0.014112 -0.010584 -0.014294
												}
											}
										}
									}
								}
								JOINT palm.03.L
								{
									OFFSET 0.039230 -0.011402 0.008390
									CHANNELS 6 Xposition Yposition Zposition Yrotation Xrotation Zrotation
									JOINT f_ring.01.L
									{
										OFFSET 0.061796 -0.031470 0.007910
										CHANNELS 3 Xrotation Yrotation Zrotation
										JOINT f_ring.02.L
										{
											OFFSET 0.033092 -0.023401 -0.019127
											CHANNELS 3 Xrotation Yrotation Zrotation
											JOINT f_ring.03.L
											{
												OFFSET 0.021392 -0.015362 -0.017824
												CHANNELS 3 Xrotation Yrotation Zrotation
												End Site
												{
													OFFSET 0.008670 -0.007297 -0.014686
												}
											}
										}
									}
								}
								JOINT palm.04.L
								{
									OFFSET 0.043417 0.002450 0.002889
									CHANNELS 6 Xposition Yposition Zposition Yrotation Xrotation Zrotation
									JOINT f_pinky.01.L
									{
										OFFSET 0.069986 -0.026156 0.003627
										CHANNELS 3 Xrotation Yrotation Zrotation
										JOINT f_pinky.02.L
										{
											OFFSET 0.018520 -0.012813 -0.016429
											CHANNELS 3 Xrotation Yrotation Zrotation
											JOINT f_pinky.03.L
											{
												OFFSET 0.013822 -0.009796 -0.014947
												CHANNELS 3 Xrotation Yrotation Zrotation
												End Site
												{
													OFFSET 0.007238 -0.006103 -0.011657
												}
											}
										}
									}
								}
							}
						}
					}
				}
				JOINT shoulder.R
				{
					OFFSET -0.016662 0.078957 0.057696
					CHANNELS 6 Xposition Yposition Zposition Yrotation Xrotation Zrotation
					JOINT upper_arm.R
					{
						OFFSET -0.176972 -0.020537 -0.095144
						CHANNELS 6 Xposition Yposition Zposition Xrotation Yrotation Zrotation
						JOINT forearm.R
						{
							OFFSET -0.247100 -0.135500 -0.061800
							CHANNELS 3 Xrotation Yrotation Zrotation
							JOINT hand.R
							{
								OFFSET -0.217000 -0.143000 0.039300
								CHANNELS 3 Xrotation Yrotation Zrotation
								JOINT palm.01.R
								{
									OFFSET -0.021773 -0.038278 0.012988
									CHANNELS 6 Xposition Yposition Zposition Yrotation Xrotation Zrotation
									JOINT f_index.01.R
									{
										OFFSET -0.053212 -0.044139 0.008249
										CHANNELS 3 Xrotation Yrotation Zrotation
										JOINT f_index.02.R
										{
											OFFSET -0.036049 -0.024835 -0.010634
											CHANNELS 3 Xrotation Yrotation Zrotation
											JOINT f_index.03.R
											{
												OFFSET -0.021371 -0.014881 -0.010866
												CHANNELS 3 Xrotation Yrotation Zrotation
												End Site
												{
													OFFSET -0.015584 -0.009883 -0.013422
												}
											}
										}
									}
									JOINT thumb.01.R
									{
										OFFSET 0.009113 -0.002381 -0.024211
										CHANNELS 6 Xposition Yposition Zposition Xrotation Yrotation Zrotation
										JOINT thumb.02.R
										{
											OFFSET -0.019694 -0.035097 -0.011088
											CHANNELS 3 Xrotation Yrotation Zrotation
											JOINT thumb.03.R
											{
												OFFSET -0.024867 -0.021762 -0.005168
												CHANNELS 3 Xrotation Yrotation Zrotation
												End Site
												{
													OFFSET -0.016120 -0.013036 -0.001565
												}
											}
										}
									}
								}
								JOINT palm.02.R
								{
									OFFSET -0.032828 -0.025095 0.012286
									CHANNELS 6 Xposition Yposition Zposition Yrotation Xrotation Zrotation
									JOINT f_middle.01.R
									{
										OFFSET -0.055721 -0.038472 0.008040
										CHANNELS 3 Xrotation Yrotation Zrotation
										JOINT f_middle.02.R
										{
											OFFSET -0.038101 -0.027593 -0.015557
											CHANNELS 3 Xrotation Yrotation Zrotation
											JOINT f_middle.03.R
											{
												OFFSET -0.021730 -0.016530 -0.017054
												CHANNELS 3 Xrotation Yrotation Zrotation
												End Site
												{
													OFFSET -0.014096 -0.010608 -0.014293
												}
											}
										}
									}
								}
								JOINT palm.03.R
								{
									OFFSET -0.039192 -0.011488 0.008390
									CHANNELS 6 Xposition Yposition Zposition Yrotation Xrotation Zrotation
									JOINT f_ring.01.R
									{
										OFFSET -0.061839 -0.031387 0.007876
										CHANNELS 3 Xrotation Yrotation Zrotation
										JOINT f_ring.02.R
										{
											OFFSET -0.033068 -0.023437 -0.019125
											CHANNELS 3 Xrotation Yrotation Zrotation
											JOINT f_ring.03.R
											{
												OFFSET -0.021371 -0.015393 -0.017822
												CHANNELS 3 Xrotation Yrotation Zrotation
												End Site
												{
													OFFSET -0.008654 -0.007321 -0.014684
												}
											}
										}
									}
								}
								JOINT palm.04.R
								{
									OFFSET -0.043421 0.002443 0.002845
									CHANNELS 6 Xposition Yposition Zposition Yrotation Xrotation Zrotation
									JOINT f_pinky.01.R
									{
										OFFSET -0.069983 -0.026169 0.003599
										CHANNELS 3 Xrotation Yrotation Zrotation
										JOINT f_pinky.02.R
										{
											OFFSET -0.018501 -0.012842 -0.016428
											CHANNELS 3 Xrotation Yrotation Zrotation
											JOINT f_pinky.03.R
											{
												OFFSET -0.013806 -0.009821 -0.014946
												CHANNELS 3 Xrotation Yrotation Zrotation
												End Site
												{
													OFFSET -0.007226 -0.006121 -0.011655
												}
											}
										}
									}
								}
							}
						}
					}
				}
			}
		}
	}
	JOINT pelvis.L
	{
		OFFSET 0.000000 0.000000 0.000000
		CHANNELS 6 Xposition Yposition Zposition Xrotation Yrotation Zrotation
		JOINT thigh.L
		{
			OFFSET 0.101675 0.001054 -0.000000
			CHANNELS 3 Xrotation Yrotation Zrotation
			JOINT shin.L
			{
				OFFSET 0.000000 -0.534800 0.041000
				CHANNELS 3 Xrotation Yrotation Zrotation
				JOINT foot.L
				{
					OFFSET 0.000000 -0.452000 -0.044800
					CHANNELS 3 Xrotation Yrotation Zrotation
					JOINT toe.L
					{
						OFFSET -0.000000 -0.068500 0.109600
						CHANNELS 3 Xrotation Yrotation Zrotation
						End Site
						{
							OFFSET -0.000000 0.000000 0.067200
						}
					}
				}
				JOINT heel.L
				{
					OFFSET 0.000000 -0.452000 -0.044800
					CHANNELS 3 Xrotation Yrotation Zrotation
					JOINT heel.02.L
					{
						OFFSET -0.038000 -0.085200 0.016200
						CHANNELS 6 Xposition Yposition Zposition Xrotation Yrotation Zrotation
						End Site
						{
							OFFSET 0.080000 -0.000000 0.000000
						}
					}
				}
			}
		}
	}
	JOINT pelvis.R
	{
		OFFSET 0.000000 0.000000 0.000000
		CHANNELS 6 Xposition Yposition Zposition Xrotation Yrotation Zrotation
		JOINT thigh.R
		{
			OFFSET -0.094325 0.001054 0.000000
			CHANNELS 3 Xrotation Yrotation Zrotation
			JOINT shin.R
			{
				OFFSET 0.000000 -0.534800 0.041000
				CHANNELS 3 Xrotation Yrotation Zrotation
				JOINT foot.R
				{
					OFFSET 0.000000 -0.452000 -0.044800
					CHANNELS 3 Xrotation Yrotation Zrotation
					JOINT toe.R
					{
						OFFSET -0.000000 -0.068500 0.109600
						CHANNELS 3 Xrotation Yrotation Zrotation
						End Site
						{
							OFFSET -0.000000 0.000000 0.067200
						}
					}
				}
				JOINT heel.R
				{
					OFFSET 0.000000 -0.452000 -0.044800
					CHANNELS 3 Xrotation Yrotation Zrotation
					JOINT heel.02.R
					{
						OFFSET 0.038000 -0.085200 0.016200
						CHANNELS 6 Xposition Yposition Zposition Xrotation Yrotation Zrotation
						End Site
						{
							OFFSET -0.080000 0.000000 -0.000000
						}
					}
				}
			}
		}
	}
}
MOTION
Frames: 4
Frame Time: 0.041667
-0.002657 0.222084 0.004095 -11.946386 5.094646 93.140168 -0.000000 0.000000 -0.000000 -0.000001 0.000001 -0.000000 -0.000000 -0.000001 0.000000 0.000001 0.000001 0.000000 0.000924 0.155148 0.009274 -11.119011 0.024804 -17.016563 0.019937 0.078966 0.057518 -8.145072 7.531222 49.401338 0.177024 -0.020465 -0.095062 -49.505949 -11.290338 -30.853733 32.126700 -17.432045 91.049932 0.000003 0.000001 -0.000001 0.021770 -0.038291 0.012954 0.000001 -0.000003 0.000001 -0.000001 -0.000001 -0.000000 -0.000003 0.000003 0.000005 0.000001 -0.000001 0.000001 -0.009090 -0.002348 -0.024223 0.000005 -0.000002 -0.000003 0.000003 0.000001 -0.000002 0.000003 -0.000001 -0.000004 0.032823 -0.025104 0.012281 -0.000001 0.000000 0.000004 -0.000000 0.000006 -0.000005 -0.000001 0.000003 0.000000 -0.000001 0.000001 0.000001 0.039230 -0.011402 0.008390 0.000001 -0.000001 0.000006 -0.000001 -0.000003 -0.000000 -0.000002 0.000005 0.000001 -0.000001 -0.000001 0.000000 0.043417 0.002450 0.002889 0.000001 -0.000001 0.000003 0.000000 0.000003 -0.000000 0.000001 0.000000 -0.000005 -0.000004 -0.000001 -0.000002 -0.016662 0.078957 0.057696 -9.128346 7.334658 -40.539778 -0.176972 -0.020537 -0.095144 -30.057333 2.583450 31.172768 35.460023 4.934324 -105.207767 -0.000001 -0.000001 0.000000 -0.021773 -0.038278 0.012988 0.000003 0.000002 -0.000003 -0.000004 0.000005 0.000001 0.000001 -0.000000 -0.000004 0.000000 0.000002 0.000003 0.009113 -0.002381 -0.024211 -0.000001 -0.000001 0.000001 0.000002 0.000000 0.000000 -0.000001 -0.000000 -0.000008 -0.032828 -0.025095 0.012286 0.000001 -0.000000 -0.000003 -0.000002 0.000005 -0.000003 0.000002 -0.000001 -0.000001 -0.000002 0.000003 -0.000006 -0.039192 -0.011488 0.008390 -0.000001 0.000004 0.000005 -0.000000 -0.000000 0.000002 -0.000001 -0.000004 0.000001 -0.000001 0.000000 -0.000001 -0.043421 0.002443 0.002845 0.000001 0.000005 0.000000 -0.000001 0.000007 -0.000003 -0.000007 -0.000003 -0.000003 -0.000003 0.000002 -0.000004 0.000000 0.000000 -0.000000 -1.617461 -0.437892 4.411711 43.690924 0.145344 -0.126640 19.510861 -1.017889 10.328645 -0.000002 0.000000 0.000001 -0.000001 0.000001 0.000001 0.000000 0.000001 0.000001 -0.038000 -0.085200 0.016200 -0.000002 -0.000001 -0.000000 0.000000 0.000000 -0.000000 -1.596021 -0.436014 5.646057 38.796755 0.478705 8.516454 25.722373 -0.548997 5.548350 0.000000 0.000001 0.000001 0.000004 -0.000002 0.000000 0.000007 -0.000001 -0.000001 0.038000 -0.085200 0.016200 -0.000000 0.000001 -0.000001 
-0.004039 0.225970 0.002712 -24.687577 4.668116 94.663225 -0.000000 0.000001 -0.000000 -0.000001 0.000003 0.000000 -0.000001 -0.000002 -0.000000 -0.000001 -0.000002 -0.000000 0.000924 0.155148 0.009274 -10.573982 0.020278 -18.540555 0.019937 0.078966 0.057518 -16.366515 7.898018 50.098724 0.177024 -0.020465 -0.095062 -56.487946 -6.108735 -36.575567 48.316676 15.391971 122.645226 -0.000003 0.000001 0.000003 0.021770 -0.038291 0.012954 -0.000002 -0.000000 -0.000004 -0.000001 -0.000001 -0.000000 -0.000001 0.000001 0.000005 0.000002 0.000001 -0.000000 -0.009090 -0.002348 -0.024224 0.000003 0.000000 -0.000004 -0.000002 -0.000001 -0.000001 -0.000003 0.000001 -0.000002 0.032823 -0.025104 0.012281 -0.000002 0.000001 -0.000001 0.000000 0.000000 -0.000005 -0.000000 -0.000000 -0.000002 -0.000001 -0.000001 0.000001 0.039230 -0.011402 0.008390 -0.000001 0.000000 0.000001 -0.000002 0.000005 -0.000004 0.000002 0.000006 0.000001 0.000003 0.000002 0.000005 0.043417 0.002450 0.002889 -0.000004 0.000001 -0.000005 -0.000002 -0.000003 0.000001 -0.000001 0.000001 -0.000001 -0.000001 -0.000003 -0.000004 -0.016662 0.078957 0.057696 -14.318849 7.695651 -37.572106 -0.176972 -0.020537 -0.095144 -23.425676 -0.560403 31.649177 35.015798 -4.729579 -114.655462 0.000001 0.000001 -0.000002 -0.021773 -0.038278 0.012988 0.000005 -0.000002 -0.000002 0.000003 0.000003 -0.000003 0.000003 -0.000000 -0.000005 -0.000002 0.000000 -0.000001 0.009113 -0.002381 -0.024211 0.000003 0.000000 0.000001 0.000001 -0.000005 0.000005 -0.000004 0.000001 -0.000003 -0.032828 -0.025095 0.012286 0.000004 -0.000001 -0.000001 0.000003 0.000000 0.000001 -0.000001 0.000003 -0.000000 0.000001 -0.000000 -0.000002 -0.039192 -0.011488 0.008390 0.000005 0.000001 -0.000000 -0.000000 0.000003 -0.000003 -0.000000 0.000001 -0.000000 0.000000 -0.000000 0.000002 -0.043421 0.002443 0.002845 0.000005 -0.000001 0.000000 -0.000004 0.000005 -0.000001 0.000000 -0.000002 0.000004 -0.000002 0.000002 0.000002 -0.000000 0.000000 -0.000000 -1.591836 -0.675181 7.362272 37.505713 0.438588 3.963135 23.395964 -1.666824 17.075297 -0.000002 0.000001 0.000001 0.000001 0.000002 0.000000 -0.000002 0.000000 0.000002 -0.038000 -0.085200 0.016200 -0.000002 0.000001 0.000001 -0.000000 0.000000 -0.000000 -1.577826 -0.673222 8.596624 35.288934 0.759455 12.051522 24.508392 -1.142820 11.611536 -0.000003 0.000001 0.000001 0.000002 0.000000 -0.000000 0.000009 0.000001 0.000001 0.038000 -0.085200 0.016200 0.000002 -0.000001 0.000002 
-0.003695 0.225351 0.001989 -31.102578 4.561060 96.615806 -0.000001 -0.000001 0.000000 -0.000001 0.000001 0.000000 -0.000000 0.000001 0.000001 -0.000001 0.000004 0.000001 0.000924 0.155147 0.009274 -8.568799 0.008272 -21.606750 0.019937 0.078966 0.057518 -25.422961 9.491770 55.086323 0.177024 -0.020465 -0.095062 -45.977446 -5.334930 -33.212608 38.909730 0.073497 109.451118 -0.000001 0.000002 0.000003 0.021770 -0.038291 0.012954 0.000001 0.000003 0.000001 0.000001 -0.000001 0.000003 -0.000003 -0.000002 0.000010 -0.000002 0.000001 -0.000000 -0.009090 -0.002348 -0.024223 0.000001 -0.000001 -0.000003 0.000002 -0.000002 0.000003 -0.000001 0.000001 -0.000002 0.032823 -0.025104 0.012281 0.000002 0.000000 0.000004 -0.000002 0.000002 -0.000007 -0.000004 0.000001 0.000003 -0.000003 -0.000002 0.000004 0.039230 -0.011402 0.008390 0.000003 0.000000 0.000003 0.000002 0.000000 -0.000002 0.000002 0.000006 0.000005 0.000003 0.000001 -0.000000 0.043417 0.002450 0.002889 -0.000000 0.000002 -0.000002 -0.000003 -0.000011 -0.000000 0.000001 -0.000001 0.000003 -0.000002 -0.000002 -0.000003 -0.016662 0.078956 0.057696 -24.545980 9.484735 -35.834499 -0.176972 -0.020537 -0.095144 -28.647859 6.316612 26.280802 32.721872 -2.187666 -110.750698 0.000001 -0.000001 0.000001 -0.021773 -0.038278 0.012988 -0.000002 -0.000001 -0.000003 -0.000000 0.000004 -0.000006 -0.000003 0.000003 -0.000007 0.000005 0.000002 0.000003 0.009114 -0.002381 -0.024211 0.000003 -0.000000 -0.000004 -0.000001 -0.000004 0.000007 -0.000001 0.000001 0.000001 -0.032828 -0.025095 0.012286 0.000002 0.000003 -0.000004 -0.000000 0.000005 -0.000004 0.000001 0.000003 -0.000003 -0.000003 0.000003 -0.000004 -0.039192 -0.011488 0.008390 -0.000001 0.000002 -0.000000 0.000006 0.000003 -0.000002 -0.000001 0.000001 -0.000003 -0.000002 -0.000002 -0.000006 -0.043421 0.002442 0.002845 -0.000003 -0.000001 -0.000002 -0.000007 0.000004 0.000003 -0.000001 -0.000004 -0.000002 -0.000003 0.000002 -0.000001 0.000000 0.000000 -0.000000 -1.605070 -0.777714 8.587031 34.130052 0.572634 5.889439 21.579800 -1.771406 18.183476 0.000002 -0.000004 -0.000002 -0.000001 -0.000001 -0.000001 0.000003 -0.000001 -0.000000 -0.038000 -0.085200 0.016200 -0.000004 -0.000001 0.000001 0.000000 0.000000 -0.000000 -1.593855 -0.775890 9.821365 33.955794 0.894102 13.766379 22.813764 -1.271313 12.938917 -0.000003 -0.000001 -0.000001 -0.000001 -0.000002 0.000001 0.000002 -0.000002 -0.000001 0.038000 -0.085200 0.016200 0.000001 -0.000000 0.000000 
-0.002729 0.222593 0.002554 -22.098893 5.516375 95.173038 0.000000 0.000002 -0.000000 0.000001 0.000003 -0.000001 -0.000000 -0.000002 -0.000000 0.000001 0.000000 0.000000 0.000924 0.155148 0.009274 -7.521473 0.005332 -21.524096 0.019937 0.078966 0.057518 -16.235703 8.798301 56.402749 0.177024 -0.020465 -0.095062 -41.776521 -13.156431 -25.013437 17.960293 -11.689052 78.094334 0.000006 0.000000 0.000001 0.021770 -0.038291 0.012954 0.000001 0.000003 0.000001 -0.000002 0.000000 -0.000000 -0.000000 -0.000000 0.000005 -0.000002 0.000001 0.000002 -0.009090 -0.002348 -0.024223 -0.000001 -0.000001 0.000003 0.000001 0.000000 0.000003 -0.000002 -0.000000 -0.000001 0.032823 -0.025104 0.012281 0.000001 0.000002 0.000004 -0.000003 0.000003 -0.000003 -0.000002 -0.000003 0.000001 0.000002 -0.000004 -0.000000 0.039230 -0.011402 0.008390 0.000001 -0.000000 0.000006 0.000005 0.000003 -0.000000 -0.000000 0.000003 -0.000001 0.000002 -0.000006 -0.000000 0.043417 0.002450 0.002889 0.000000 0.000006 -0.000000 -0.000001 -0.000006 -0.000004 -0.000001 0.000003 -0.000000 0.000007 0.000000 -0.000003 -0.016662 0.078956 0.057696 -21.805763 9.359863 -39.346367 -0.176972 -0.020537 -0.095144 -32.497234 14.137312 20.495968 27.502225 6.692225 -97.100414 -0.000004 0.000001 0.000004 -0.021773 -0.038278 0.012988 0.000001 -0.000003 0.000002 -0.000003 0.000003 -0.000001 -0.000004 0.000001 -0.000003 0.000002 0.000000 0.000001 0.009114 -0.002381 -0.024212 -0.000000 0.000001 0.000003 0.000002 -0.000005 0.000005 0.000002 0.000001 -0.000003 -0.032828 -0.025095 0.012286 0.000003 -0.000001 0.000001 0.000003 0.000004 0.000003 -0.000001 -0.000003 -0.000002 -0.000004 0.000006 -0.000003 -0.039192 -0.011488 0.008390 0.000002 0.000000 -0.000000 0.000002 0.000003 0.000000 -0.000000 0.000000 -0.000000 -0.000001 -0.000003 0.000001 -0.043421 0.002443 0.002845 0.000000 -0.000001 -0.000001 -0.000002 0.000001 0.000001 0.000002 -0.000002 -0.000001 -0.000001 -0.000000 0.000002 0.000000 0.000000 -0.000000 -1.631900 -0.563260 5.931248 38.501821 0.423408 3.742669 19.138764 -1.246237 12.680804 0.000003 0.000001 0.000001 0.000001 0.000003 -0.000000 0.000002 0.000002 0.000002 -0.038000 -0.085200 0.016200 -0.000002 0.000002 0.000000 0.000000 0.000000 0.000000 -1.613952 -0.561207 7.165603 35.726063 0.670877 10.874552 24.768008 -1.040485 10.559036 -0.000003 -0.000002 -0.000001 0.000003 -0.000001 -0.000001 0.000002 -0.000002 -0.000001 0.038000 -0.085200 0.016200 0.000002 -0.000001 -0.000000 
